<mxfile host="app.diagrams.net" modified="2023-08-31T13:33:07.889Z" agent="Mozilla/5.0 (Macintosh; Intel Mac OS X 10_15_7) AppleWebKit/537.36 (KHTML, like Gecko) Chrome/116.0.0.0 Safari/537.36" version="21.7.1" etag="CtXvpb6V8c41NunoP3WB" type="github">
  <diagram name="第 1 页" id="g85YvM_ydZhD5dB3n3eZ">
    <mxGraphModel>
      <root>
        <mxCell id="0" />
        <mxCell id="1" parent="0" />
      </root>
    </mxGraphModel>
  </diagram>
</mxfile>
